<?xml version="1.0" encoding="utf-8"?>
<!-- Generator: Adobe Illustrator 25.2.0, SVG Export Plug-In . SVG Version: 6.00 Build 0)  -->
<svg version="1.1" id="Laag_1" xmlns="http://www.w3.org/2000/svg" xmlns:xlink="http://www.w3.org/1999/xlink" x="0px" y="0px"
	 viewBox="0 0 751.201 172.048" style="enable-background:new 0 0 751.201 172.048;" xml:space="preserve">
<style type="text/css">
	.st0{fill:url(#SVGID_1_);}
	.st1{fill:url(#SVGID_2_);}
	.st2{fill:#8157FF;}
	.st3{fill:#74E2BE;}
</style>
<g>
	<g>
		<radialGradient id="SVGID_1_" cx="151.7601" cy="153.3437" r="128.4238" gradientUnits="userSpaceOnUse">
			<stop  offset="0" style="stop-color:#000000"/>
			<stop  offset="1" style="stop-color:#8157FF"/>
			<stop  offset="1" style="stop-color:#8157FF"/>
		</radialGradient>
		<path class="st0" d="M132.295,136.563C22.167,134.495,87.145,22.136,21.747,20.758l0.356-14.166
			c40.439,1.015,44.989,30.068,49.004,55.701c3.595,22.96,6.993,44.647,31.596,54.517c30.754,12.341,69.621,3.446,81.554-18.667
			c16.287-33.304,4.05-89.455-45.447-83.592l-2.158-14.005C227.552-8.745,231.004,141.511,132.295,136.563z"/>
		<radialGradient id="SVGID_2_" cx="81.6974" cy="160.2777" r="148.0938" gradientUnits="userSpaceOnUse">
			<stop  offset="0" style="stop-color:#74E2BE"/>
			<stop  offset="0.758" style="stop-color:#8157FF"/>
		</radialGradient>
		<path class="st1" d="M165.265,82.488C164.231,53.826,157.022,24.137,141.29,0c-3.165,0.206-11.95,1.705-15.221,2.176
			c1.806,2.958,6.474,10.272,8.018,13.253l0.024-0.005c16.317,31.932,22.715,71.403,11.25,105.971
			c-0.029,0.005-0.059,0.006-0.087,0.011c-1.986,5.421-4.606,10.522-8.032,15.029c0.002,0,0.004,0,0.006,0
			c-27.769,35.617-95.693,22.838-112.331-14.508C7.901,87.27,10.498,38.374,34.298,7.959c-4.578-1.045-10.762-1.423-16.043-1.463
			C0.091,31.005-8.945,86.767,12.391,128.555C51.481,198.296,172.085,185.032,165.265,82.488z"/>
	</g>
	<g>
		<path class="st2" d="M297.312,103.736h-0.222c-5.53-12.175-8.849-26.449-9.514-41.714h-22.132
			c2.55,21.134,7.414,42.269,20.469,59.862c-5.308,5.64-11.724,8.405-20.026,8.627l0.222,15.161
			c30.87-0.222,53.113-28.881,58.539-83.65h-19.811C304.615,77.287,301.629,92.448,297.312,103.736z"/>
		<path class="st2" d="M388.328,70.164c-10.344-12.303-35.332-11.994-45.409-0.631c-10.175,10.572-10.888,34.042-0.464,45.766
			c10.724,12.139,34.176,12.336,45.405,0.637C398.588,104.168,398.677,82.298,388.328,70.164z M377.941,92.787
			c1.145,24.069-26.782,20.591-24.986,0C351.255,69.609,380.006,71.043,377.941,92.787z"/>
		<path class="st2" d="M454.168,62.201c-23.666-4.405-47.661,2.226-46.576,30.699c-0.001,9.875,2.078,17.174,6.178,21.69
			c6.748,7.958,26.835,10.196,34.531,1.243c3.026,18.817-19.784,17.229-30.677,10.602c-1.503,4.882-2.409,9.127-4.388,14.878
			c11.438,5.663,34.614,6.617,44.565-2.068c13.661-9.079,7.665-56.939,7.665-74.398C462.224,63.762,458.929,63.001,454.168,62.201z
			 M447.969,77.533v24.069c-3.318,6.03-14.837,8.377-19.567,2.28C420.344,87.991,427.935,70.25,447.969,77.533z"/>
		<path class="st2" d="M533.481,114.111c-2.098-13.082,2.288-26.886-0.746-39.677c-6.166-19.776-35.501-12.803-49.731-7.299
			l4.765,13.664c8.05-3.953,31.625-11.116,28.592,5.179c-9.492-2.222-24.358-0.881-30.225,4.189
			c-10.699,7.567-8.946,28.37,4.923,32.224c9.823,3.43,21.448,0.04,27.217-8.135l2.62,8.633h14.762
			C534.661,120.062,533.894,117.188,533.481,114.111z M516.325,96.849c1.336,7.148-4.198,12.526-11.827,12.407
			C490.715,107.809,496.098,90.848,516.325,96.849z"/>
		<path class="st3" d="M580.384,107.659c-5.367,1.344-9.957,3.786-10.278-6.244c0-0.001,0-58.089,0-58.089h-17.5v66.937
			c-0.981,17.338,20.202,15.99,31.104,11.004l-2.183-14.013L580.384,107.659z"/>
		<rect x="595.86" y="62.685" class="st3" width="17.498" height="60.095"/>
		<path class="st3" d="M604.273,41.889c-13.876-0.963-14.005,19.164,0.001,18.166C619.117,60.731,618.911,41.315,604.273,41.889z"/>
		<path class="st3" d="M659.708,93.384l-1.506,8.355h-0.156c-0.587-5.592-11.982-33.296-14.137-39.055h-20.31l28.611,60.649h10.135
			l27.457-60.649h-18.965L659.708,93.384z"/>
		<path class="st3" d="M748.952,73.942c-7.571-17.078-35.835-15.92-46.702-4.826c-10.689,9.549-10.698,36.356-0.942,46.781
			c9.761,12.104,36.126,10.417,48.086,0.834l-6.268-11.471c-9.55,7.144-31.4,8.486-31.762-7.703h38.42
			C751.554,90.059,752.063,80.463,748.952,73.942z M711.956,86.363c0.267-13.904,24.677-15.761,22.909,0H711.956z"/>
	</g>
</g>
</svg>
